<?xml version="1.0" encoding="utf-8"?>
<!DOCTYPE svg PUBLIC "-//W3C//DTD SVG 20010904//EN" "http://www.w3.org/TR/2001/REC-SVG-20010904/DTD/svg10.dtd">
<svg version="1.0" xmlns="http://www.w3.org/2000/svg" width="458px" height="476px" viewBox="0 0 458 476" preserveAspectRatio="xMidYMid meet">
 <g fill="#000000">
  <path d="M331.5 472.1 c-27.4 -6.4 -49.4 -21.5 -63.9 -43.6 -5.8 -8.9 -11.8 -21.6 -13.7 -29 l-1.2 -4.8 -11.1 0.6 c-71.6 4.1 -147.8 -0.4 -189.9 -11.3 -22.1 -5.6 -39.8 -14.5 -44.6 -22.4 -1.3 -2 -2.7 -3.6 -3.2 -3.6 -0.5 0 -0.9 -14.4 -0.9 -35 0 -19.2 0.4 -35 0.8 -35 0.5 0 3.7 1.2 7.3 2.6 23.3 9.5 64.5 17.5 110.9 21.6 20.3 1.8 101.7 1.7 127 -0.1 l19.4 -1.4 8.7 -9.1 c4.8 -5 8.6 -9.2 8.5 -9.3 -0.1 -0.1 -5.8 0.4 -12.7 1.2 -48.6 5.8 -119.2 6.2 -167.4 0.9 -43.8 -4.8 -76.8 -12.5 -95 -22.2 l-7 -3.7 -0.3 -44.7 c-0.1 -24.7 0 -44.8 0.2 -44.8 0.2 0 3.5 1.2 7.2 2.6 45.6 17.3 123.2 26.3 201.8 23.4 66.4 -2.4 118.6 -10.7 146.3 -23.1 3.6 -1.6 6.7 -2.9 6.9 -2.9 0.2 0 0.3 20.2 0.2 44.9 l-0.3 44.8 6.5 1.2 c14.8 2.7 29.9 9.4 42.5 18.8 18.6 13.8 30.7 31.6 38.1 55.8 2.5 8.3 2.8 10.4 2.8 26.5 0.1 15.6 -0.2 18.4 -2.3 25.5 -11.1 37.6 -36.2 63.2 -72.6 74.1 -7.8 2.3 -11.2 2.7 -25 3 -13 0.3 -17.5 0 -24 -1.5z m32.5 -9.7 c33 -3.9 64.9 -30 75.8 -61.9 4 -11.7 5.5 -22.1 4.9 -33.5 -2.1 -38.9 -30.2 -73.5 -68.7 -84.3 -4.7 -1.4 -10.4 -2.7 -12.6 -3 l-4.2 -0.5 1 3.7 c0.6 2 1.9 5.4 3 7.5 3 5.8 11 17.7 11.6 17.1 0.3 -0.3 1 -3.8 1.6 -7.7 l1.1 -7.3 8.8 -0.3 8.7 -0.3 0 3.8 c0 2.1 -1.4 10 -3 17.6 l-3.1 13.8 4.8 5.7 c8 9.5 24.9 28.6 27.2 30.6 3.3 3 2.7 7 -2.1 13.7 -3.8 5.2 -4.7 5.8 -7.8 5.9 -3 0 -4.2 -0.8 -9.2 -6.2 l-5.7 -6.3 -0.1 23.1 c0 12.7 -0.3 29.9 -0.7 38.2 l-0.6 15.2 -19.3 0 -19.3 0 -0.5 -5.2 c-0.3 -2.9 -0.8 -11.4 -1.1 -18.8 -0.3 -7.4 -0.7 -13.5 -0.8 -13.6 -0.1 -0.1 -2.6 0.1 -5.5 0.3 l-5.2 0.6 0.5 4.6 c0.2 2.5 0.7 10.6 1 17.9 l0.6 13.2 -19.4 0 -19.4 0 -0.8 -30.2 c-0.4 -16.7 -1 -35.8 -1.4 -42.6 l-0.6 -12.2 -5.5 4 c-7.6 5.4 -11.5 5.5 -15.8 0.1 -5.3 -6.5 -4.6 -8.8 4.6 -15.6 14.1 -10.6 45.5 -44 62.7 -66.9 l3 -3.9 -6.5 0.7 c-9.9 1 -23.5 5.3 -33.4 10.3 -23.9 12.4 -39.2 31 -48.1 58.3 -2.5 7.6 -2.8 10.1 -2.9 22.5 -0.1 11.7 0.3 15.3 2.2 21.9 6.5 22.7 19.8 41.5 38.5 54.4 12.8 8.8 26.4 14 42.2 16.1 6.9 0.9 8.6 0.8 19.5 -0.5z m16 -42.6 c0 -7.4 -0.8 -8.8 -4.6 -8.8 -3.2 0 -3.4 0.2 -3.4 3.4 0 1.8 0.3 4.8 0.6 6.5 0.6 2.7 1 3.1 4 3.1 3.3 0 3.4 -0.1 3.4 -4.2z m-50.3 -34.4 c2.1 -0.6 2.2 -1 1.7 -6.3 -0.4 -3.1 -0.8 -5.7 -0.9 -5.8 -0.1 -0.2 -1.6 -0.6 -3.3 -0.9 l-3.2 -0.6 0 7.1 c0 7.6 0.3 7.9 5.7 6.5z"/>
  <path d="M157 189.4 c-27.6 -1.1 -63.6 -4.6 -86 -8.3 -24.9 -4.2 -51.4 -12 -62 -18.4 l-5.5 -3.3 -0.3 -44.7 c-0.1 -24.6 0 -44.7 0.3 -44.7 0.3 0 4 1.7 8.3 3.9 21 10.5 54.2 17.4 112.2 23.3 19.9 2 105.7 1.7 128 -0.6 56.3 -5.6 90.9 -13 108 -23.3 l5.5 -3.3 0.3 44.7 0.2 44.7 -2.7 2.2 c-14.7 11.9 -62.5 21.9 -125.8 26.4 -15 1.1 -66.5 2 -80.5 1.4z"/>
  <path d="M140 83 c-88.1 -6.1 -140.7 -25.2 -126.7 -46.1 9.3 -14 49.1 -25.5 108.7 -31.6 25.2 -2.6 108.7 -2.6 133.5 0 63.7 6.6 102.3 18.3 109.6 33.3 2.7 5.7 1.5 9.7 -4.6 15.3 -13.8 12.7 -48.4 21.8 -105 27.7 -17.6 1.8 -95.6 2.7 -115.5 1.4z"/>
 </g>
 <g fill="#ffffff">
  <path d="M341.5 465.9 c-38.7 -5 -69.5 -31.8 -80.7 -70.5 -2 -6.9 -2.3 -10 -2.2 -24.9 0.1 -15.8 0.3 -17.6 2.8 -25.5 11.1 -33.6 33.5 -55.8 66.6 -65.7 8.8 -2.6 10.7 -2.8 25.5 -2.7 14.4 0 16.9 0.3 25 2.8 32.8 9.8 57.3 34.3 66.6 66.6 3 10.7 3.8 31.7 1.5 43 -4.1 20.1 -12.3 35.8 -25.5 48.8 -16.6 16.4 -34.8 25.3 -57.6 28.1 -10.1 1.2 -12 1.2 -22 0z m50.8 -37.1 c0.4 -8.3 0.7 -26.9 0.7 -41.2 l0.1 -26.1 8.9 9.5 c10.1 10.6 8.3 10.4 14.9 1.4 l3 -4.1 -2.1 -1.9 c-3.8 -3.5 -30.3 -34 -32.1 -37 -0.4 -0.7 0.9 -8.3 2.8 -17 1.9 -8.7 3.5 -16.2 3.5 -16.7 0 -0.4 -2.6 -0.7 -5.7 -0.5 l-5.8 0.3 -1.7 10.8 c-0.9 6 -1.9 11.1 -2.1 11.4 -0.3 0.2 -4.1 -4.9 -8.4 -11.4 -6.9 -10.2 -9.4 -15.2 -12 -23.3 -0.3 -1.1 -1.2 -0.6 -3.1 1.9 -19.8 25.6 -49.2 56.9 -63.4 67.5 l-7.7 5.8 3.1 3.9 c1.7 2.1 3.3 3.9 3.5 3.9 0.3 0 4.3 -2.7 9 -6 4.8 -3.3 8.7 -5.9 8.9 -5.7 0.1 0.1 0.8 20.1 1.5 44.5 l1.3 44.2 16.3 0 16.4 0 -0.5 -5.7 c-0.3 -3.2 -0.8 -11.3 -1.1 -17.9 l-0.6 -12.2 8.1 -0.7 c4.5 -0.4 8.3 -0.5 8.5 -0.3 0.2 0.2 0.7 6.4 1 13.8 0.3 7.4 0.8 15.9 1.1 18.8 l0.5 5.2 16.3 0 16.3 0 0.6 -15.2z"/>
  <path d="M369.7 424.3 c-0.4 -2.1 -0.7 -6.6 -0.7 -10 l0 -6.3 6.5 0 6.4 0 0.5 3.3 c0.3 1.7 0.8 6 1.1 9.5 l0.6 6.2 -3.9 0 c-2.2 0 -5.3 0.3 -6.9 0.6 -2.8 0.6 -3 0.4 -3.6 -3.3z"/>
  <path d="M321 378.9 l0 -10.1 6 0.4 c3.3 0.2 6.2 0.6 6.4 0.9 0.3 0.2 0.8 4.3 1.2 9 0.6 8.5 0.6 8.6 -1.7 9.2 -1.3 0.4 -4.5 0.7 -7.1 0.7 l-4.8 0 0 -10.1z"/>
 </g>
</svg>